<?xml version="1.0" encoding="utf-8"?>
<!-- Generator: Adobe Adobe Illustrator 29.2.0, SVG Export Plug-In . SVG Version: 6.00 Build 0)  -->
<svg version="1.1" id="Layer_1" xmlns="http://www.w3.org/2000/svg" xmlns:xlink="http://www.w3.org/1999/xlink" x="0px" y="0px"
	 width="612px" height="792px" viewBox="0 0 612 792" style="enable-background:new 0 0 612 792;" xml:space="preserve">
<style type="text/css">
	.st0{fill:#1A6063;stroke:#1A6063;stroke-width:40;stroke-linejoin:round;stroke-miterlimit:10;}
	.st1{fill:#3FA8AD;stroke:#3FA8AD;stroke-width:40;stroke-linejoin:round;stroke-miterlimit:10;}
	.st2{fill:#0D6E73;stroke:#0D6E73;stroke-width:10;stroke-linejoin:round;stroke-miterlimit:10;}
	.st3{fill:#0D6E73;stroke:#0D6E73;stroke-width:30;stroke-linejoin:round;stroke-miterlimit:10;}
	.st4{fill:#3FA8AD;stroke:#3FA8AD;stroke-width:30;stroke-linejoin:round;stroke-miterlimit:10;}
	.st5{fill:#3FA8AD;stroke:#3FA8AD;stroke-width:10;stroke-linejoin:round;stroke-miterlimit:10;}
</style>
<polygon class="st0" points="416.53,349.64 253.88,252.78 253.88,446.5 "/>
<polygon class="st1" points="416.04,343.51 253.88,251.33 253.88,435.69 "/>
<path class="st2" d="M140.54,353.14l-63.31,48.62c0,0-18.85-15.57-22.07-66.14c-4.66-73.4,23.26-138.32,74.22-182.34
	c-2.86,3.15-5.63,6.37-8.31,9.67c-10.29,12.69-19.27,26.45-26.81,41.03c-10.49,20.26-18.18,42.11-22.73,64.85
	c-4.15,20.71-5.69,42.16-4.36,63.82c0.99,16.03,1.99,26.64,3.07,34.4c2.22,15.95,4.76,19.81,8.12,33.8L111.64,375l28.83-22.39
	C140.49,352.78,140.52,352.96,140.54,353.14z"/>
<path class="st2" d="M469.59,229.72c-2.55-4.46-5.85-8.8-9.83-12.99v-94.76L469.59,229.72z"/>
<polygon class="st3" points="580.94,171.82 459.76,286.31 459.76,57.32 576.28,167.42 "/>
<polygon class="st4" points="581.34,162.65 576.28,167.42 459.76,277.15 459.76,48.15 "/>
<path class="st5" d="M141.48,351.82l-1.01,0.79c-5.33-38.93,0.86-71.78,14.92-98.45c-7.21,15.65-12.2,32.76-14.39,51.09
	C139.24,320.02,139.29,335.59,141.48,351.82z"/>
<path class="st2" d="M468.61,449.74c-1.08,2.35-2.21,4.66-3.39,6.94c-7.33,14.17-16.5,27.05-27.04,38.44
	c-13.85,14.98-30.08,27.41-47.59,36.86C365.4,545.57,337.54,553,310.23,553c-23.47,0-45.9-3.29-65.9-8.99
	c-17.03-4.85-32.3-11.43-44.95-19.21c-14.69-9.03-25.86-19.66-32.15-31.03l8.46,95.9c-3.79-1.29-7.5-2.66-11.12-4.11l-0.33-3.62
	l-9.83-107.75c2.55,4.46,5.85,8.8,9.83,12.99c26.08,27.49,81.07,48.15,142.82,48.15C373.11,535.33,438.69,506.52,468.61,449.74z"/>
<path class="st2" d="M494.62,550.63c2.86-3.15,5.63-6.37,8.31-9.67c10.29-12.69,19.27-26.45,26.81-41.02
	c10.49-20.27,18.18-42.12,22.73-64.86c4.15-20.71,5.69-42.16,4.36-63.82c-0.99-16.03-1.99-26.64-3.07-34.39
	c-2.22-15.96-4.76-19.82-8.12-33.81l-33.28,25.85l-28.83,22.39c-0.02-0.17-0.05-0.35-0.07-0.53l63.31-48.62
	c0,0,18.85,15.57,22.07,66.14C573.5,441.69,545.58,506.61,494.62,550.63z"/>
<polygon class="st3" points="43.06,532.09 164.24,646.59 164.24,417.6 "/>
<polygon class="st4" points="42.66,541.26 164.24,655.76 164.24,426.76 "/>
<path class="st5" d="M155.39,254.16c-14.06,26.67-20.25,59.52-14.92,98.45L111.64,375l-33.28,25.85c-3.36-13.99-5.9-17.85-8.12-33.8
	c-1.08-7.76-2.08-18.37-3.07-34.4c-1.33-21.66,0.21-43.11,4.36-63.82c4.55-22.74,12.24-44.59,22.73-64.85
	c7.54-14.58,16.52-28.34,26.81-41.03c2.68-3.3,5.45-6.52,8.31-9.67c6.01-6.65,12.42-12.96,19.19-18.88
	c20.99-18.35,45.47-32.99,72.8-42.65c23.86-8.43,49.9-13.07,77.67-13.07c23.39,0,47.27,1.28,70.25,4.25
	c28.16,3.65,54.99,9.83,77.96,19.32l1.06,12c3.79,1.28,7.5,2.65,11.12,4.1l0.33,3.62v94.76c-26.08-27.49-81.07-48.15-142.82-48.15
	C250.89,168.58,185.32,197.39,155.39,254.16z"/>
<path class="st5" d="M552.47,435.08c-4.55,22.74-12.24,44.59-22.73,64.86c-7.54,14.57-16.52,28.33-26.81,41.02
	c-2.68,3.3-5.45,6.52-8.31,9.67c-42.87,37.04-102.05,59.27-171.83,59.27c-51.04,0-104.25-5.53-147.1-20.23l-8.46-95.9
	c6.29,11.37,17.46,22,32.15,31.03c12.65,7.78,27.92,14.36,44.95,19.21c20,5.7,42.43,8.99,65.9,8.99c27.31,0,55.17-7.43,80.36-21.02
	c17.51-9.45,33.74-21.88,47.59-36.86c10.54-11.39,19.71-24.27,27.04-38.44c1.18-2.28,2.31-4.59,3.39-6.94
	c7.21-15.65,12.2-32.76,14.39-51.08c1.76-14.77,1.71-30.34-0.48-46.57l1.01-0.79l28.83-22.39l33.28-25.85
	c3.36,13.99,5.9,17.85,8.12,33.81c1.08,7.75,2.08,18.36,3.07,34.39C558.16,392.92,556.62,414.37,552.47,435.08z"/>
<path class="st5" d="M494.62,550.63c-6.01,6.65-12.42,12.96-19.19,18.88c-20.99,18.35-45.47,32.99-72.8,42.65
	c-23.86,8.44-49.9,13.07-77.67,13.07c-23.39,0-47.27-1.28-70.25-4.25c-28.16-3.65-54.99-9.83-77.96-19.32l-1.06-11.99
	c42.85,14.7,96.06,20.23,147.1,20.23C392.57,609.9,451.75,587.67,494.62,550.63z"/>
</svg>
