<?xml version="1.0" encoding="utf-8"?>
<!-- Generator: Adobe Adobe Illustrator 29.2.0, SVG Export Plug-In . SVG Version: 6.00 Build 0)  -->
<svg version="1.1" id="Layer_1" xmlns="http://www.w3.org/2000/svg" xmlns:xlink="http://www.w3.org/1999/xlink" x="0px" y="0px"
	 width="800px" height="800px" viewBox="0 0 800 800" style="enable-background:new 0 0 800 800;" xml:space="preserve">
<style type="text/css">
	.st0{fill:#3EA8AC;}
	.st1{fill:#107075;}
</style>
<g>
	<g>
		<g>
			<path class="st0" d="M562.38,312.07c-0.16-24.78-1.16-49.6-0.09-74.33c0.49-11.29-4.29-16.86-12.86-21.67
				c-22.35-12.56-45.67-22.92-70.8-28.06c-34.44-7.04-69.01-10.9-104.46-6.25c-23.57,3.09-46.61,7.94-67.96,17.44
				c-38.68,17.21-71.6,42.18-91.88,80.73c-10.81,20.54-17.25,42.58-18.07,65.89c-0.55,15.66-0.48,31.36,0.09,47.02
				c0.23,6.32-1.9,10.69-6.51,14.2c-23.54,17.89-47.03,35.85-70.86,53.35c-3.49,2.56-8.38,6.13-13.15,0.58
				c-0.09-3.47-0.09-6.11-0.77-8.56c-1.91-6.87-5.12-13.54-6-20.52c-2.72-21.53-5.67-43.12-6.55-64.77
				c-1.4-34.59,3.44-68.55,13.78-101.75c7.98-25.62,18.77-49.78,33.19-72.41c4.45-6.99,7.89-14.63,11.79-21.97
				c0,0,0.05,0.15,0.6,0.22c1.83-1.59,3.13-3.25,4.42-4.9c14.91-14.93,29.27-30.46,44.86-44.63c17.79-16.16,38.48-28.44,60.29-38.34
				c21.58-9.8,44.17-16.44,67.56-21.38c33.39-7.05,66.84-4,100.23-3.97c17.94,0.01,35.95,3.29,53.78,6.07
				c16.7,2.6,33.29,6.08,49.75,9.97c9.44,2.23,18.52,6.03,28.61,9.41c0.22-3.15,0.5-5.37,0.51-7.6c0.1-16.53,0.04-33.06,0.27-49.58
				c0.12-8.34,3.89-14.47,11.85-17.82c8.27-3.49,14.46-0.43,20.53,5.28c24.26,22.8,48.85,45.25,73.09,68.06
				c19.87,18.7,39.41,37.74,59.13,56.59c4.18,3.99,8.5,7.83,12.76,11.73c6.81,6.25,11.46,13.26,7.53,23.81
				c-6.67,6.76-12.64,12.9-18.8,18.83c-24.1,23.2-48.14,46.47-72.45,69.44c-19.45,18.38-39.42,36.21-58.85,54.6
				C583.77,329.26,570.42,327.68,562.38,312.07z"/>
			<path class="st0" d="M640.68,632.46c-30,33.33-63.55,61.96-104.78,80.8c-23.2,10.6-47.42,18.32-72.37,22.2
				c-33.96,5.28-68.33,5.46-102.58,1.2c-23.39-2.91-46.97-4.77-70.11-9.05c-18.04-3.33-35.52-9.66-53.94-14.85
				c-0.14,2.18-0.42,4.67-0.44,7.17c-0.13,17.32-0.45,34.64-0.17,51.95c0.12,7.68-4.56,12.53-10.04,14.76
				c-6.31,2.58-13.64,3.09-19.91-2.79c-45.74-42.91-91.66-85.63-137.52-128.42c-3.23-3.01-6.4-6.09-9.63-9.11
				c-6.56-6.13-10.21-13.34-7.88-23.53c7.15-7.35,13.68-13.78,20.3-20.14c19.41-18.63,38.82-37.28,58.31-55.83
				c15.15-14.42,30.43-28.7,45.64-43.05c9.77-9.22,19.34-18.65,29.31-27.63c9.4-8.46,17.32-8.02,26.62,0.8
				c1.53,1.45,2.96,3.01,4.44,4.52c0.15,29.34,0.31,58.68,0.37,89.44c1.12,5.52,1.11,10.81,3.74,13.53
				c26,26.86,59.52,39.93,94.94,47.03c29.18,5.85,58.82,8.98,89.15,4.26c25.76-4,49.86-11.93,72.17-24.26
				c25.59-14.14,46.97-34.07,65.44-56.85c2.87-3.55,4.61-8.02,6.87-12.07c15.04-20.94,25.88-44,31.31-69.09
				c5.07-23.48,5.14-47.46,3.05-71.45c-0.29-3.34,1.79-8.18,4.41-10.27c24.54-19.53,49.34-38.73,74.41-57.57
				c2.02-1.52,6.54,0.29,9.98,1.78c1.01,4.79,2.09,8.32,2.82,11.92c3.36,16.53,8.29,32.96,9.51,49.66
				c1.66,22.65,0.48,45.52,0.47,68.3c0,28.16-7.93,54.82-17.11,80.9c-8.63,24.51-20.74,47.56-36.02,68.79
				c-2.98,4.14-5.07,8.93-7.58,13.42c0,0,0.05-0.11-0.5-0.1C642.11,630.04,641.39,631.25,640.68,632.46z"/>
			<path class="st0" d="M303.52,507.25c-0.08-60.19-0.16-120.39-0.24-180.58c-0.02-16.51,0.3-33.04-0.08-49.54
				c-0.44-18.86,18.56-32.72,37.02-22.92c24.28,12.89,47.82,27.16,71.73,40.75c21.16,12.02,42.41,23.87,63.59,35.87
				c21.91,12.41,43.9,24.69,65.58,37.47c8.21,4.84,10.64,13.46,10.88,23.54c-4.45,6.11-7.59,12.37-12.61,16.08
				c-8.38,6.18-17.93,10.8-27.06,15.95c-28.49,16.06-57.07,31.94-85.5,48.11c-26.62,15.14-53.03,30.64-79.63,45.79
				c-7.97,4.54-15.91,8.7-26.01,5.68C312.31,520.78,308.52,513.6,303.52,507.25z"/>
			<path class="st1" d="M568.07,542.52c-1.71,4.08-3.44,8.55-6.32,12.1c-18.47,22.78-39.86,42.71-65.44,56.85
				c-22.31,12.33-46.41,20.25-72.17,24.26c-30.33,4.72-59.97,1.59-89.15-4.26c-35.42-7.1-68.94-20.16-94.94-47.03
				c-2.63-2.72-2.62-8-3.83-12.8c26.71,17.29,55.59,29.53,87.16,36.98c29.92,7.06,59.93,8.43,90.1,7.04
				c23.16-1.06,46.23-5.28,67.68-14.83c14.76-6.57,29.03-14.28,43.38-21.75C541.62,570.17,554.42,556.13,568.07,542.52z"/>
			<path class="st1" d="M644.41,628.77c1.97-4.33,4.06-9.11,7.04-13.26c15.28-21.23,27.39-44.28,36.02-68.79
				c9.19-26.08,17.11-52.74,17.11-80.9c0-22.78,1.18-45.64-0.47-68.3c-1.22-16.7-6.15-33.13-9.51-49.66
				c-0.73-3.6-1.82-7.14-2.78-11.34c1.66,0.34,3.86,0.93,4.98,2.36c11.38,14.44,17.55,31.61,20.03,49.18
				c3.03,21.44,2.98,43.35,3.59,65.08c0.6,21.38-4.49,42.01-9.98,62.5c-8.27,30.89-22.63,58.91-41.02,84.8
				C662.26,610.54,653.16,619.26,644.41,628.77z"/>
			<path class="st1" d="M150.72,171.06c-3.34,7.27-6.77,14.91-11.23,21.9c-14.42,22.63-25.21,46.79-33.19,72.41
				c-10.34,33.2-15.19,67.15-13.78,101.75c0.88,21.65,3.83,43.24,6.55,64.77c0.88,6.98,4.09,13.64,6,20.52
				c0.68,2.45,0.68,5.09,0.54,8.03c-13.45-14.13-19-31.86-23.09-50.45c-6.42-29.2-6.15-58.72-2.59-87.94
				c2.4-19.68,7.98-39.21,14.25-58.1c5.05-15.22,12.88-29.6,20.19-43.98C123.61,201.79,135.6,185.48,150.72,171.06z"/>
			<path class="st1" d="M303.42,507.95c5.1,5.65,8.89,12.83,17.77,15.48c10.1,3.02,18.04-1.14,26.01-5.68
				c26.6-15.16,53.02-30.66,79.63-45.79c28.43-16.17,57.01-32.05,85.5-48.11c9.13-5.15,18.68-9.77,27.06-15.95
				c5.02-3.7,8.17-9.96,12.55-15.43c1.75,10.37-3.26,18.3-11.84,23.46c-30.94,18.58-62.19,36.63-93.25,55.02
				c-34.31,20.32-68.7,40.52-102.68,61.38c-10.06,6.18-19.45,8.13-29.49,1.65C305.6,528.12,302.19,519.3,303.42,507.95z"/>
			<path class="st1" d="M236.07,480.79c-1.61-0.84-3.04-2.4-4.57-3.85c-9.31-8.82-17.22-9.26-26.62-0.8
				c-9.98,8.98-19.55,18.41-29.31,27.63c-15.21,14.35-30.49,28.63-45.64,43.05c-19.49,18.55-38.9,37.2-58.31,55.83
				C65,609,58.47,615.44,51.42,622.07c-1.91-6.97,1.06-12.51,6.1-17.29c34.34-32.6,68.63-65.25,103.02-97.81
				c14.41-13.64,29.25-26.85,43.41-40.75c6.33-6.21,12.74-9.07,21.17-5.54C233.73,464.3,237.31,470.89,236.07,480.79z"/>
			<path class="st1" d="M562.26,312.75c8.15,14.93,21.5,16.5,34.69,4.01c19.43-18.4,39.4-36.22,58.85-54.6
				c24.31-22.98,48.35-46.24,72.45-69.44c6.16-5.93,12.13-12.07,18.73-18.2c2.43,8.32-2.21,14.24-7.63,19.35
				c-37.16,35.11-74.49,70.03-111.73,105.04c-10.67,10.03-21.75,19.7-31.68,30.43c-6.87,7.42-15.28,8.95-23.03,5.92
				C564.19,331.85,561.04,323.07,562.26,312.75z"/>
			<path class="st1" d="M155.71,166.23c-0.71,1.73-2,3.38-3.91,4.94C152.51,169.43,153.82,167.8,155.71,166.23z"/>
			<path class="st1" d="M641.22,632.33c0.17-1.08,0.89-2.29,2.19-3.46C643.26,630,642.51,631.1,641.22,632.33z"/>
		</g>
	</g>
</g>
</svg>
